<?xml version="1.0" encoding="utf-8"?>
<!-- Generator: Adobe Illustrator 22.0.1, SVG Export Plug-In . SVG Version: 6.00 Build 0)  -->
<svg version="1.1" id="Layer_1" xmlns="http://www.w3.org/2000/svg" xmlns:xlink="http://www.w3.org/1999/xlink" x="0px" y="0px"
	 viewBox="0 0 315 412.6" style="enable-background:new 0 0 315 412.6;" xml:space="preserve">
<style type="text/css">
	.st0{fill:#333333;}
</style>
<g>
	<path class="st0" d="M272.8,53.2H42.4C21.2,53.2,4,70.4,4,91.6v12.8h307.2V91.6C311.2,70.4,294,53.2,272.8,53.2L272.8,53.2z
		 M205.7,27.6l5.6,40.4H103.8l5.6-40.4H205.7 M208.8,2H106.4C95.8,2,86,10.6,84.5,21l-7.5,53.6c-1.5,10.5,6,19,16.5,19h128
		c10.6,0,18-8.6,16.5-19L230.7,21C229.2,10.6,219.4,2,208.8,2L208.8,2z M279.2,130H36c-14.1,0-24.6,11.5-23.3,25.5l21,230.6
		c1.3,14,13.8,25.5,27.9,25.5h192c14.1,0,26.6-11.5,27.9-25.5l21-230.6C303.8,141.5,293.3,130,279.2,130L279.2,130z M106.4,360.4H68
		L55.2,181.2h51.2V360.4z M183.2,360.4H132V181.2h51.2V360.4z M247.2,360.4h-38.4V181.2H260L247.2,360.4z M247.2,360.4"/>
</g>
</svg>
