<?xml version="1.0" encoding="utf-8"?>
<!-- Generator: Adobe Illustrator 22.0.1, SVG Export Plug-In . SVG Version: 6.00 Build 0)  -->
<svg version="1.1" id="Layer_1" xmlns="http://www.w3.org/2000/svg" xmlns:xlink="http://www.w3.org/1999/xlink" x="0px" y="0px"
	 viewBox="0 0 783.6 127" style="enable-background:new 0 0 783.6 127;" xml:space="preserve">
<style type="text/css">
	.st0{fill:#AC92EB;}
	.st1{fill:#5D9CEC;}
	.st2{fill:#4FC2E9;}
	.st3{fill:#48CFAD;}
	.st4{fill:#A0D468;}
	.st5{fill:#E6E9ED;}
	.st6{fill:#434A54;}
</style>
<g>
	<path class="st0" d="M142.8,108.5h7.8V50.2h-7.8v-3.5h11.6v7.4c4.1-4.7,9.5-8.1,16.6-8.1c12,0,21.1,9.4,21.1,22.9
		c0,12.8-8.9,23.1-21.9,23.1c-6,0-11.6-2.6-15.7-6.2v22.9h8.5v3.5h-20.3V108.5z M188.1,68.8c0-11.3-7-19.3-17.3-19.3
		c-6.8,0-12.1,3.4-16.2,8.2v24.2c4,3.6,9.1,6.4,15.8,6.4C180.8,88.3,188,79.9,188.1,68.8z"/>
	<path class="st0" d="M204.3,79.2c0-8,6.9-13.3,16.6-13.3c5.1,0,11,1.3,14.2,2.6v-8.1c0-2.8-0.7-5.1-2.2-6.9c-2-2.3-5.6-4-10.5-4
		c-5.1,0-8.1,1.7-9.8,3.4c0.6,0.6,1.1,1.7,1.1,2.9c0,1.6-1.3,3.2-3.2,3.2c-2.1,0-3.4-1.6-3.4-3.6c0-4.2,5.7-9.3,15.7-9.3
		c5.9,0,10.5,1.7,13.1,4.8c2,2.2,3.1,5.2,3.1,8.9v28h7.7v3.5h-11.4v-6.7c-3.6,4-9.5,7.5-16,7.5C209.7,91.9,204.3,86.2,204.3,79.2z
		 M235,80.7v-9.3c-4.1-1.3-9.2-2.2-14-2.2c-8.8,0-12.8,4.6-12.8,9.8c0,5,3.6,9.5,11.4,9.5C226,88.5,231.3,84.9,235,80.7z"/>
	<path class="st0" d="M255.2,87.6h8.2V16.7h-8.2v-3.5h12.2v74.4h8.4v3.5h-20.6V87.6z"/>
	<path class="st0" d="M290,69.3c0.4,12.4,7.9,19,19.1,19c6,0,10.8-2,15.5-5.1l-0.3,4.1c-4.3,2.9-9.8,4.6-15.6,4.6
		c-13.6,0-22.7-9.1-22.7-23.1c0-12.6,8.8-22.9,21-22.9c12.7,0,19.8,9.9,19.8,20.8c0,1.1-0.1,1.9-0.3,2.6H290z M290.1,65.9h32.6
		c-0.4-9.2-5.8-16.4-16-16.4C298.1,49.5,291.1,56.1,290.1,65.9z"/>
	<path class="st0" d="M344.5,87c-0.7-1.6-1.1-3.4-1.1-5.6V50.2h-8.1v-3.5h8.1V34.9l4-1.4v13.2h14.3v3.5h-14.3V81
		c0,1.7,0.2,3,0.7,4.2c1,2,2.8,3,5.7,3c2.8,0,5.4-1.1,8.1-2.7l-0.6,4c-2.1,1.3-4.7,2.5-8.3,2.5C348.8,91.9,346,90.2,344.5,87z"/>
	<path class="st0" d="M378.5,87c-0.7-1.6-1.1-3.4-1.1-5.6V50.2h-8.1v-3.5h8.1V34.9l4-1.4v13.2h14.3v3.5h-14.3V81
		c0,1.7,0.2,3,0.7,4.2c1,2,2.8,3,5.7,3c2.8,0,5.4-1.1,8.1-2.7l-0.6,4c-2.1,1.3-4.7,2.5-8.3,2.5C382.8,91.9,380,90.2,378.5,87z"/>
	<path class="st0" d="M410.6,69.3c0.4,12.4,7.9,19,19.1,19c6,0,10.8-2,15.5-5.1l-0.3,4.1c-4.3,2.9-9.8,4.6-15.6,4.6
		c-13.6,0-22.7-9.1-22.7-23.1c0-12.6,8.8-22.9,21-22.9c12.7,0,19.8,9.9,19.8,20.8c0,1.1-0.1,1.9-0.3,2.6H410.6z M410.7,65.9h32.6
		c-0.4-9.2-5.8-16.4-16-16.4C418.7,49.5,411.6,56.1,410.7,65.9z"/>
	<path class="st0" d="M457.9,59.9h20.5V64h-20.5V59.9z"/>
	<path class="st0" d="M487.6,108.5h7.8V50.2h-7.8v-3.5h11.6v7.4c4.1-4.7,9.5-8.1,16.6-8.1c12,0,21.1,9.4,21.1,22.9
		c0,12.8-8.9,23.1-21.9,23.1c-6,0-11.6-2.6-15.7-6.2v22.9h8.5v3.5h-20.3V108.5z M532.8,68.8c0-11.3-7-19.3-17.3-19.3
		c-6.8,0-12.1,3.4-16.2,8.2v24.2c4,3.6,9.1,6.4,15.8,6.4C525.6,88.3,532.7,79.9,532.8,68.8z"/>
	<path class="st0" d="M548.6,87.6h8.3V50.2h-8.3v-3.5h12.3v40.9h8.3v3.5h-20.6V87.6z M554.2,27.8c0-2.2,1.7-4.1,3.8-4.1
		s3.8,1.8,3.8,4.1c0,2.1-1.7,4-3.8,4S554.2,29.9,554.2,27.8z"/>
	<path class="st0" d="M579.4,69.3c0-13.2,10-23.4,21.9-23.4c9.4,0,17,6.2,17,12.4c0,2.3-1.6,4.4-4,4.4c-1.5,0-3.1-1-3.1-3.2
		c0-1.5,0.9-2.7,2.6-3.4c-1.3-3.8-6.7-6.6-12.5-6.6c-8.9,0-17.8,7.6-17.8,20c0,11.2,8.1,18.9,19.4,18.9c4.9,0,9.6-1.5,14.4-4.7
		l-0.3,4c-4.2,2.9-9.8,4.3-14.5,4.3C589.3,91.9,579.4,82.7,579.4,69.3z"/>
	<path class="st0" d="M628.4,87.6h7.7V16.7h-7.7v-3.5H640v58l23.3-21h-10.6v-3.4h23.6v3.5h-7.9l-16.1,14.5l16,22.9h8v3.5H666
		l-16.6-24.2l-9.4,8.5v12.2h8v3.5h-19.6V87.6z"/>
	<path class="st0" d="M689.6,69.3c0.4,12.4,7.9,19,19.1,19c6,0,10.8-2,15.5-5.1l-0.3,4.1c-4.3,2.9-9.8,4.6-15.6,4.6
		c-13.6,0-22.7-9.1-22.7-23.1c0-12.6,8.8-22.9,21-22.9c12.7,0,19.8,9.9,19.8,20.8c0,1.1-0.1,1.9-0.3,2.6H689.6z M689.7,65.9h32.6
		c-0.4-9.2-5.8-16.4-16-16.4C697.7,49.5,690.6,56.1,689.7,65.9z"/>
	<path class="st0" d="M767.6,50.2c0,1.9-1.4,3.5-3.5,3.5c-1.9,0-3.6-1.6-3.7-3.5c-4.1,0.6-8.2,5.1-11.1,10.4v27h8.8v3.5h-20.5v-3.5
		h7.8V50.2h-7.8v-3.5h11.5v9.9c3.3-5.9,8.8-10.7,13.3-10.7C765.8,46,767.6,48,767.6,50.2z"/>
</g>
<path class="st0" d="M109,87.4c1.2,0,2.1,0.9,2.1,2.1v21c0,1.2-0.9,2.1-2.1,2.1H12.3c-1.2,0-2.1-0.9-2.1-2.1v-21
	c0-1.2,0.9-2.1,2.1-2.1H109z"/>
<path class="st1" d="M12.9,76l8.1-19.4c0.4-1.1,1.7-1.6,2.7-1.1l87.5,36.2v10.9l-4.2,10H95.8L14,78.7C12.9,78.3,12.4,77.1,12.9,76z"
	/>
<path class="st2" d="M111.1,105.1l-7.6,7.6H93.4L28.6,47.8c-0.8-0.8-0.8-2.2,0-3L43.4,30c0.8-0.8,2.2-0.8,3,0l64.7,64.7V105.1z"/>
<path class="st3" d="M111.1,108.4l-10.1,4.2H90.1L53.8,25.2c-0.4-1.1,0.1-2.3,1.1-2.7l19.4-8c1.1-0.4,2.3,0.1,2.7,1.1l34,82V108.4z"
	/>
<path class="st4" d="M111.1,110.5c0,1.2-0.9,2.1-2.1,2.1H88c-1.2,0-2.1-0.9-2.1-2.1V13.8c0-1.2,0.9-2.1,2.1-2.1h21
	c1.2,0,2.1,0.9,2.1,2.1L111.1,110.5L111.1,110.5z"/>
<path class="st5" d="M111.1,87.4v23.1c0,1.2-0.9,2.1-2.1,2.1H88c-1.2,0-2.1-0.9-2.1-2.1V87.4H111.1z"/>
<path d="M98.5,97.9c1.2,0,2.1,0.9,2.1,2.1s-0.9,2.1-2.1,2.1c-1.2,0-2.1-0.9-2.1-2.1C96.4,98.8,97.3,97.9,98.5,97.9z"/>
<path d="M97.7,102c1.1,0.4,2.3-0.1,2.7-1.1c0.4-1.1-0.1-2.3-1.1-2.7c-1.1-0.4-2.3,0.1-2.7,1.1C96.1,100.4,96.6,101.6,97.7,102z"/>
<path d="M97,101.3c0.8,0.8,2.2,0.8,3,0c0.8-0.8,0.8-2.2,0-3c-0.8-0.8-2.2-0.8-3,0C96.2,99.2,96.2,100.5,97,101.3z"/>
<path d="M96.6,100.8c0.4,1.1,1.7,1.6,2.7,1.1c1.1-0.4,1.6-1.7,1.1-2.7c-0.4-1.1-1.7-1.6-2.7-1.1C96.6,98.5,96.1,99.7,96.6,100.8z"/>
<path d="M100.6,100c0,1.2-0.9,2.1-2.1,2.1c-1.2,0-2.1-0.9-2.1-2.1c0-1.2,0.9-2.1,2.1-2.1C99.7,97.9,100.6,98.8,100.6,100z"/>
<path class="st6" d="M100.6,100c0,1.2-0.9,2.1-2.1,2.1c-1.2,0-2.1-0.9-2.1-2.1c0-1.2,0.9-2.1,2.1-2.1
	C99.7,97.9,100.6,98.8,100.6,100z"/>
</svg>
